<svg xmlns="http://www.w3.org/2000/svg" xmlns:xlink="http://www.w3.org/1999/xlink" viewBox="0 0 63 63"><defs><style>.cls-1{fill:url(#radial-gradient);}.cls-2{fill:url(#linear-gradient);}.cls-3{fill:url(#linear-gradient-2);}.cls-4{fill:url(#linear-gradient-3);}.cls-5{fill:#6b7280;}</style><radialGradient id="radial-gradient" cx="-46.85" cy="-1.14" r="85.87" gradientTransform="translate(19.3 20.61) scale(0.39 0.35)" gradientUnits="userSpaceOnUse"><stop offset="0.17" stop-color="#4674b5"/><stop offset="0.43" stop-color="#3290b9"/><stop offset="1" stop-color="#00d6c4"/></radialGradient><linearGradient id="linear-gradient" x1="6.2" y1="17.45" x2="48.29" y2="17.45" gradientUnits="userSpaceOnUse"><stop offset="0" stop-color="#00d6c4"/><stop offset="0.27" stop-color="#14bac0"/><stop offset="0.83" stop-color="#4674b5"/></linearGradient><linearGradient id="linear-gradient-2" x1="62.37" y1="47.61" x2="38.28" y2="23.91" gradientUnits="userSpaceOnUse"><stop offset="0.21" stop-color="#4674b5"/><stop offset="0.35" stop-color="#427ab6"/><stop offset="0.53" stop-color="#358bb9"/><stop offset="0.73" stop-color="#21a7bd"/><stop offset="0.96" stop-color="#06cec3"/><stop offset="1" stop-color="#00d6c4"/></linearGradient><linearGradient id="linear-gradient-3" x1="2215.73" y1="8.97" x2="2245.86" y2="8.97" gradientTransform="translate(2278.73 54.54) rotate(180)" xlink:href="#linear-gradient"/></defs><g id="Layer_2" data-name="Layer 2"><g id="OBJECTS"><path class="cls-1" d="M19.92,41.5a6.49,6.49,0,0,0,8.46,0h0a5,5,0,0,0,0-7.55L10.26,17.77a6.51,6.51,0,0,0-8.46,0h0a5,5,0,0,0,0,7.56l10.72,9.54Z"/><path class="cls-2" d="M28.38,1.59a6.49,6.49,0,0,0-8.46,0L1.8,17.76a4.85,4.85,0,0,0-.24,7.34l.1.09.12.1,0,0,0,0,10.69,9.53c-5.76-5.13,2-13.33,2-13.33h0L28.38,9.14A5,5,0,0,0,28.38,1.59Z"/><path class="cls-3" d="M43.08,21.52a6.51,6.51,0,0,0-8.46,0h0a5,5,0,0,0,0,7.56L52.74,45.25a6.49,6.49,0,0,0,8.46,0h0a5,5,0,0,0,0-7.55L50.48,28.15Z"/><path class="cls-4" d="M34.62,61.44a6.51,6.51,0,0,0,8.46,0L61.2,45.26a4.84,4.84,0,0,0,.24-7.33l-.1-.09-.12-.11,0,0,0,0L50.48,28.15c5.76,5.14-2,13.33-2,13.33h0L34.62,53.88A5,5,0,0,0,34.62,61.44Z"/><path class="cls-5" d="M27.8,59.31a6,6,0,0,1-7.26,3.39h0c-3.05-.85-4.75-3.76-3.8-6.48L35.48,3.63A5.93,5.93,0,0,1,42.74.24h0c3,.85,4.75,3.75,3.79,6.48Z"/></g></g></svg>